<?xml version="1.0" standalone="no"?>
<!DOCTYPE svg PUBLIC "-//W3C//DTD SVG 20010904//EN"
 "http://www.w3.org/TR/2001/REC-SVG-20010904/DTD/svg10.dtd">
<svg version="1.0" xmlns="http://www.w3.org/2000/svg"
 width="237.000000pt" height="213.000000pt" viewBox="0 0 237.000000 213.000000"
 preserveAspectRatio="xMidYMid meet">

<g transform="translate(0.000000,213.000000) scale(0.100000,-0.100000)"
fill="#000000" stroke="none">
<path d="M997 1491 c-143 -31 -156 -47 -182 -216 -13 -85 -22 -116 -40 -135
-42 -47 -45 -62 -45 -263 0 -189 0 -194 23 -215 19 -18 35 -22 89 -22 90 0
108 15 115 98 l6 62 257 0 258 0 4 -60 c6 -86 22 -100 114 -100 66 0 74 2 93
26 20 25 21 40 21 216 0 200 -2 211 -50 263 -23 25 -30 47 -45 145 -23 145
-41 168 -155 195 -114 28 -349 30 -463 6z m413 -61 c74 -15 109 -29 119 -49
10 -18 35 -160 29 -166 -1 -2 -39 6 -83 17 -150 39 -497 25 -587 -23 -22 -12
-22 -10 -4 89 7 39 21 81 30 91 47 51 329 75 496 41z m13 -254 c91 -18 167
-49 198 -82 20 -22 24 -37 27 -124 l4 -100 -431 0 -431 0 0 88 c0 49 6 98 13
112 24 48 111 89 235 110 81 13 305 11 385 -4z m-533 -427 l0 -50 -47 3 -48 3
-3 48 -3 47 50 0 51 0 0 -51z m755 1 l0 -45 -47 -3 -48 -3 0 51 0 51 48 -3 47
-3 0 -45z"/>
<path d="M962 1357 c-56 -57 -65 -89 -27 -95 27 -4 128 98 123 124 -7 37 -41
27 -96 -29z"/>
<path d="M1091 1355 c-54 -56 -58 -70 -28 -89 14 -9 28 0 77 50 44 43 59 65
54 77 -12 33 -49 19 -103 -38z"/>
<path d="M1080 1089 c-22 -41 0 -49 141 -49 113 0 129 2 138 18 6 11 6 24 0
35 -9 15 -27 17 -139 17 -120 0 -130 -1 -140 -21z"/>
<path d="M875 1075 c-35 -34 -35 -96 0 -130 34 -35 96 -35 130 0 35 34 35 96
0 130 -18 19 -35 25 -65 25 -30 0 -47 -6 -65 -25z m85 -50 c15 -18 6 -45 -13
-45 -8 0 -20 7 -27 15 -10 12 -10 18 0 30 16 19 24 19 40 0z"/>
<path d="M1426 1069 c-34 -40 -34 -80 2 -120 22 -25 36 -31 67 -31 31 0 45 6
67 31 36 40 36 80 2 120 -21 26 -33 31 -69 31 -36 0 -48 -5 -69 -31z m89 -59
c0 -16 -6 -26 -18 -28 -19 -4 -32 20 -23 44 9 25 41 13 41 -16z"/>
<path d="M1080 989 c-22 -41 0 -49 141 -49 113 0 129 2 138 18 6 11 6 24 0 35
-9 15 -27 17 -139 17 -120 0 -130 -1 -140 -21z"/>
</g>
</svg>
